<?xml version="1.0" encoding="utf-8"?>
<!-- Generator: Adobe Illustrator 24.3.0, SVG Export Plug-In . SVG Version: 6.00 Build 0)  -->
<svg version="1.1" id="Layer_1" xmlns="http://www.w3.org/2000/svg" xmlns:xlink="http://www.w3.org/1999/xlink" x="0px" y="0px"
	 viewBox="0 0 819.4 176.5" style="enable-background:new 0 0 819.4 176.5;" xml:space="preserve">
<style type="text/css">
	.st0{fill:#D21F2F;}
</style>
<g>
	<g>
		<g>
			<path class="st0" d="M60.2,13.9h189.2c1.3,0,2.4-1.1,2.4-2.4V2.4c0-1.3-1.1-2.4-2.4-2.4L60.2,0c-1.3,0-2.4,1.1-2.4,2.4v9.2
				C57.9,12.8,58.9,13.9,60.2,13.9z"/>
			<path class="st0" d="M98.5,34.2h189.2c1.3,0,2.4-1.1,2.4-2.4v-9.2c0-1.3-1.1-2.4-2.4-2.4H98.5c-1.3,0-2.4,1.1-2.4,2.4v9.2
				C96.1,33.2,97.2,34.2,98.5,34.2z"/>
			<path class="st0" d="M98.5,74.9h189.2c1.3,0,2.4-1.1,2.4-2.4v-9.2c0-1.3-1.1-2.4-2.4-2.4H98.5c-1.3,0-2.4,1.1-2.4,2.4v9.2
				C96.1,73.8,97.2,74.9,98.5,74.9z"/>
			<path class="st0" d="M60.2,95.2h189.2c1.3,0,2.4-1.1,2.4-2.4v-9.2c0-1.3-1.1-2.4-2.4-2.4H60.2c-1.3,0-2.4,1.1-2.4,2.4v9.2
				C57.9,94.1,58.9,95.2,60.2,95.2z"/>
			<path class="st0" d="M119.1,54.5h189.2c1.3,0,2.4-1.1,2.4-2.4V43c0-1.3-1.1-2.4-2.4-2.4H119.1c-1.3,0-2.4,1.1-2.4,2.4v9.2
				C116.8,53.5,117.8,54.5,119.1,54.5z"/>
		</g>
		<g>
			<path class="st0" d="M250.4,95.2H61.2c-1.3,0-2.4-1.1-2.4-2.4v-9.2c0-1.3,1.1-2.4,2.4-2.4h189.2c1.3,0,2.4,1.1,2.4,2.4v9.2
				C252.8,94.1,251.7,95.2,250.4,95.2z"/>
			<path class="st0" d="M212.2,115.5H23c-1.3,0-2.4-1.1-2.4-2.4V104c0-1.3,1.1-2.4,2.4-2.4h189.2c1.3,0,2.4,1.1,2.4,2.4v9.2
				C214.5,114.4,213.5,115.5,212.2,115.5z"/>
			<path class="st0" d="M212.2,156.2H23c-1.3,0-2.4-1.1-2.4-2.4v-9.2c0-1.3,1.1-2.4,2.4-2.4h189.2c1.3,0,2.4,1.1,2.4,2.4v9.2
				C214.5,155.1,213.5,156.2,212.2,156.2z"/>
			<path class="st0" d="M250.4,176.5H61.2c-1.3,0-2.4-1.1-2.4-2.4V165c0-1.3,1.1-2.4,2.4-2.4l189.2,0c1.3,0,2.4,1.1,2.4,2.4v9.2
				C252.8,175.4,251.7,176.5,250.4,176.5z"/>
			<path class="st0" d="M191.6,135.8H2.4c-1.3,0-2.4-1.1-2.4-2.4l0-9.2c0-1.3,1.1-2.4,2.4-2.4h189.2c1.3,0,2.4,1.1,2.4,2.4v9.2
				C193.9,134.8,192.9,135.8,191.6,135.8z"/>
		</g>
	</g>
	<g>
		<path class="st0" d="M362.5,117.4v-60h26.3c6.4,0,12.1,1.2,17,3.7c4.9,2.5,8.8,6,11.5,10.5c2.7,4.5,4.1,9.8,4.1,15.8
			c0,6-1.4,11.3-4.1,15.8c-2.7,4.5-6.6,8-11.5,10.5c-4.9,2.5-10.6,3.7-17,3.7H362.5z M373.6,108h14.5c4.5,0,8.4-0.9,11.7-2.6
			c3.3-1.7,5.9-4.1,7.7-7.2c1.9-3.1,2.8-6.7,2.8-10.8c0-4.2-0.9-7.9-2.8-10.9c-1.9-3-4.4-5.4-7.7-7.1c-3.3-1.7-7.2-2.6-11.7-2.6
			h-14.5V108z"/>
		<path class="st0" d="M451.3,118c-4.6,0-8.8-1-12.5-3c-3.7-2-6.6-4.8-8.7-8.4c-2.1-3.5-3.2-7.6-3.2-12.1c0-4.6,1.1-8.7,3.2-12.2
			c2.1-3.5,5-6.2,8.7-8.3c3.7-2,7.8-3,12.5-3c4.7,0,9,1,12.7,3c3.7,2,6.6,4.8,8.7,8.3c2.1,3.5,3.1,7.5,3.1,12.2
			c0,4.6-1,8.6-3.1,12.1c-2.1,3.5-5,6.3-8.7,8.3C460.2,117,456,118,451.3,118z M451.3,108.9c2.6,0,5-0.6,7-1.8
			c2.1-1.2,3.7-2.9,4.8-5.1c1.2-2.2,1.8-4.7,1.8-7.6c0-2.9-0.6-5.4-1.8-7.6c-1.2-2.1-2.8-3.8-4.8-5c-2.1-1.2-4.4-1.8-6.9-1.8
			c-2.6,0-4.9,0.6-6.9,1.8c-2.1,1.2-3.7,2.8-4.9,5s-1.8,4.7-1.8,7.6c0,2.9,0.6,5.4,1.8,7.6c1.2,2.2,2.8,3.9,4.9,5.1
			C446.5,108.3,448.8,108.9,451.3,108.9z"/>
		<path class="st0" d="M482.9,117.4V71.6h10.2v12.6l-1.2-3.7c1.3-3.1,3.5-5.4,6.4-7.1c3-1.6,6.6-2.4,10.9-2.4v10.2
			c-0.4-0.1-0.8-0.1-1.2-0.1c-0.4,0-0.8,0-1.1,0c-4.1,0-7.4,1.2-9.8,3.5c-2.4,2.3-3.6,5.9-3.6,10.7v22.1H482.9z"/>
		<path class="st0" d="M528.2,118c-3.4,0-6.4-0.6-9-1.8c-2.6-1.2-4.6-2.8-6-4.9c-1.4-2.1-2.1-4.4-2.1-7.1c0-2.6,0.6-4.9,1.8-6.9
			c1.2-2.1,3.2-3.7,6-4.9c2.8-1.2,6.5-1.8,11.2-1.8h13.3v7.1h-12.5c-3.6,0-6,0.6-7.3,1.8c-1.3,1.2-1.9,2.6-1.9,4.4
			c0,1.9,0.8,3.4,2.3,4.5c1.5,1.1,3.7,1.7,6.4,1.7c2.6,0,5-0.6,7.1-1.8c2.1-1.2,3.6-3,4.6-5.3l1.7,6.4c-1,2.7-2.9,4.8-5.5,6.3
			C535.7,117.3,532.3,118,528.2,118z M542.6,117.4v-9.4l-0.5-1.9V90c0-3.1-1-5.6-2.9-7.3c-1.9-1.7-4.8-2.6-8.7-2.6
			c-2.5,0-5,0.4-7.5,1.2c-2.5,0.8-4.6,1.9-6.3,3.3l-4.2-7.8c2.5-1.9,5.5-3.3,8.8-4.3c3.4-1,6.9-1.5,10.6-1.5
			c6.7,0,11.8,1.6,15.4,4.8c3.6,3.2,5.4,8.1,5.4,14.8v26.9H542.6z"/>
		<path class="st0" d="M557.4,117.4l25.3-34.9V91l-24.2-33.6h12.7l18,24.8l-5.2,0.1l17.8-24.9h12.1l-23.9,33v-8.1l25.4,35.1h-12.8
			L583.7,91h5.1l-18.6,26.4H557.4z"/>
		<path class="st0" d="M620.2,134.1V71.6h10.2v10.8l-0.4,12.2l0.9,12.2v27.3H620.2z M645.5,118c-3.8,0-7.2-0.8-10.2-2.5
			c-3-1.7-5.4-4.3-7.2-7.8c-1.8-3.5-2.7-7.9-2.7-13.2c0-5.4,0.8-9.8,2.5-13.3c1.7-3.5,4.1-6,7.2-7.7c3.1-1.7,6.5-2.5,10.4-2.5
			c4.5,0,8.4,1,11.9,2.9c3.5,1.9,6.2,4.7,8.3,8.2c2,3.5,3,7.7,3,12.4c0,4.7-1,8.9-3,12.4s-4.8,6.2-8.3,8.2
			C653.9,117,649.9,118,645.5,118z M644.2,108.9c2.6,0,5-0.6,7-1.8c2-1.2,3.6-2.9,4.8-5.1c1.2-2.2,1.8-4.7,1.8-7.5
			c0-2.9-0.6-5.4-1.8-7.6s-2.8-3.8-4.8-5c-2-1.2-4.4-1.8-7-1.8c-2.5,0-4.8,0.6-6.9,1.8c-2.1,1.2-3.7,2.8-4.9,5s-1.8,4.7-1.8,7.6
			c0,2.9,0.6,5.4,1.8,7.5c1.2,2.2,2.8,3.9,4.9,5.1S641.7,108.9,644.2,108.9z"/>
		<path class="st0" d="M675.8,117.4V53.8h10.6v63.7H675.8z"/>
		<path class="st0" d="M718,118c-4.6,0-8.8-1-12.5-3c-3.7-2-6.6-4.8-8.7-8.4c-2.1-3.5-3.2-7.6-3.2-12.1c0-4.6,1.1-8.7,3.2-12.2
			c2.1-3.5,5-6.2,8.7-8.3c3.7-2,7.8-3,12.5-3c4.7,0,9,1,12.7,3c3.7,2,6.6,4.8,8.7,8.3c2.1,3.5,3.1,7.5,3.1,12.2
			c0,4.6-1,8.6-3.1,12.1c-2.1,3.5-5,6.3-8.7,8.3C726.9,117,722.7,118,718,118z M718,108.9c2.6,0,5-0.6,7-1.8
			c2.1-1.2,3.7-2.9,4.8-5.1c1.2-2.2,1.8-4.7,1.8-7.6c0-2.9-0.6-5.4-1.8-7.6c-1.2-2.1-2.8-3.8-4.8-5c-2.1-1.2-4.4-1.8-6.9-1.8
			c-2.6,0-4.9,0.6-6.9,1.8c-2.1,1.2-3.7,2.8-4.9,5s-1.8,4.7-1.8,7.6c0,2.9,0.6,5.4,1.8,7.6c1.2,2.2,2.8,3.9,4.9,5.1
			C713.2,108.3,715.5,108.9,718,108.9z"/>
		<path class="st0" d="M749.6,117.4V71.6h10.2v12.6l-1.2-3.7c1.3-3.1,3.5-5.4,6.4-7.1c3-1.6,6.6-2.4,10.9-2.4v10.2
			c-0.4-0.1-0.8-0.1-1.2-0.1c-0.4,0-0.8,0-1.1,0c-4.1,0-7.4,1.2-9.8,3.5c-2.4,2.3-3.6,5.9-3.6,10.7v22.1H749.6z"/>
		<path class="st0" d="M794.9,118c-3.4,0-6.4-0.6-9-1.8c-2.6-1.2-4.6-2.8-6-4.9c-1.4-2.1-2.1-4.4-2.1-7.1c0-2.6,0.6-4.9,1.8-6.9
			c1.2-2.1,3.2-3.7,6-4.9c2.8-1.2,6.5-1.8,11.2-1.8h13.3v7.1h-12.5c-3.6,0-6,0.6-7.3,1.8c-1.3,1.2-1.9,2.6-1.9,4.4
			c0,1.9,0.8,3.4,2.3,4.5c1.5,1.1,3.7,1.7,6.4,1.7c2.6,0,5-0.6,7.1-1.8c2.1-1.2,3.6-3,4.6-5.3l1.7,6.4c-1,2.7-2.9,4.8-5.5,6.3
			C802.4,117.3,799,118,794.9,118z M809.3,117.4v-9.4l-0.5-1.9V90c0-3.1-1-5.6-2.9-7.3c-1.9-1.7-4.8-2.6-8.7-2.6
			c-2.5,0-5,0.4-7.5,1.2c-2.5,0.8-4.6,1.9-6.3,3.3l-4.2-7.8c2.5-1.9,5.5-3.3,8.8-4.3c3.4-1,6.9-1.5,10.6-1.5
			c6.7,0,11.8,1.6,15.4,4.8c3.6,3.2,5.4,8.1,5.4,14.8v26.9H809.3z"/>
	</g>
</g>
<g>
</g>
<g>
</g>
<g>
</g>
<g>
</g>
<g>
</g>
<g>
</g>
</svg>
